<svg width="235" height="70" viewBox="0 0 235 70" fill="none" xmlns="http://www.w3.org/2000/svg">
  <g transform="translate(2 2)" stroke="#1479AA" stroke-width="4.4" stroke-linecap="square" stroke-linejoin="miter">
    <path d="M21 17L11 24V36" />
    <path d="M21 17L31 24V31" />

    <path d="M49 17L39 24V31" />
    <path d="M49 17L59 24V36" />

    <path d="M35 8L27 14" />
    <path d="M35 8L43 14" />

    <path d="M21 34L11 41V53H23" />
    <path d="M21 34L31 41V48" />

    <path d="M49 34L39 41V48" />
    <path d="M49 34L59 41V53H47" />

    <path d="M35 25L28 30" />
    <path d="M35 25L42 30" />

    <path d="M35 46L26 52V64H44V52L35 46Z" />
  </g>
  <text x="84" y="46" fill="#1479AA" font-family="Arial, Helvetica, sans-serif" font-size="31" font-weight="400">Pineapple</text>
</svg>
